<?xml version="1.0" encoding="utf-8"?>
<!-- Generator: Adobe Illustrator 27.5.0, SVG Export Plug-In . SVG Version: 6.00 Build 0)  -->
<svg version="1.1" xmlns="http://www.w3.org/2000/svg" xmlns:xlink="http://www.w3.org/1999/xlink" x="0px" y="0px"
	 viewBox="0 0 500 500" style="enable-background:new 0 0 500 500;" xml:space="preserve">
<g id="Background">
	<rect y="0" style="fill-rule:evenodd;clip-rule:evenodd;fill:#FFFFFF;" width="500" height="500"/>
</g>
<g id="Objects">
	<g>
		<path style="fill-rule:evenodd;clip-rule:evenodd;fill:#000035;" d="M245.216,143.87c85.755,0,155.327,69.572,155.327,155.327
			H90.007C90.007,213.442,159.461,143.87,245.216,143.87L245.216,143.87z"/>
		<path style="fill-rule:evenodd;clip-rule:evenodd;fill:#000035;" d="M121.545,224.427c41.342,0,74.888,33.428,74.888,74.77H46.775
			C46.775,257.855,80.203,224.427,121.545,224.427L121.545,224.427z"/>
		<path style="fill-rule:evenodd;clip-rule:evenodd;fill:#000035;" d="M378.455,224.427c41.342,0,74.888,33.428,74.888,74.77
			H303.685C303.685,257.855,337.231,224.427,378.455,224.427L378.455,224.427z"/>
		<path style="fill-rule:evenodd;clip-rule:evenodd;fill:#FFFFFF;" d="M309.355,169.265c1.417,0,2.599,1.181,2.599,2.599
			c0,1.417-1.181,2.599-2.599,2.599s-2.599-1.181-2.599-2.599C306.756,170.447,307.938,169.265,309.355,169.265L309.355,169.265z"/>
		<path style="fill-rule:evenodd;clip-rule:evenodd;fill:#FFFFFF;" d="M358.375,211.434c1.417,0,2.599,1.181,2.599,2.599
			s-1.181,2.599-2.599,2.599c-1.417,0-2.599-1.181-2.599-2.599S356.957,211.434,358.375,211.434L358.375,211.434z"/>
		<path style="fill-rule:evenodd;clip-rule:evenodd;fill:#FFFFFF;" d="M301.323,219.702c1.417,0,2.599,1.181,2.599,2.599
			c0,1.536-1.181,2.599-2.599,2.599s-2.599-1.063-2.599-2.599C298.724,220.884,299.905,219.702,301.323,219.702L301.323,219.702z"/>
		<path style="fill-rule:evenodd;clip-rule:evenodd;fill:#FFFFFF;" d="M182.731,164.895c1.417,0,2.599,1.063,2.599,2.599
			c0,1.417-1.181,2.481-2.599,2.481c-1.417,0-2.599-1.063-2.599-2.481C180.132,165.958,181.313,164.895,182.731,164.895
			L182.731,164.895z"/>
		<path style="fill-rule:evenodd;clip-rule:evenodd;fill:#FFFFFF;" d="M128.396,253.485c1.417,0,2.599,1.063,2.599,2.481
			c0,1.536-1.181,2.599-2.599,2.599s-2.599-1.063-2.599-2.599C125.797,254.548,126.979,253.485,128.396,253.485L128.396,253.485z"/>
		<path style="fill-rule:evenodd;clip-rule:evenodd;fill:#FFFFFF;" d="M431.845,260.217c1.536,0,2.599,1.063,2.599,2.48
			c0,1.536-1.063,2.599-2.599,2.599c-1.417,0-2.48-1.063-2.48-2.599C429.365,261.28,430.428,260.217,431.845,260.217
			L431.845,260.217z"/>
		<path style="fill-rule:evenodd;clip-rule:evenodd;fill:#FFFFFF;" d="M420.151,251.949c0.709,0,1.299,0.591,1.299,1.299
			c0,0.709-0.591,1.299-1.299,1.299c-0.709,0-1.299-0.591-1.299-1.299C418.852,252.54,419.442,251.949,420.151,251.949
			L420.151,251.949z"/>
		<path style="fill-rule:evenodd;clip-rule:evenodd;fill:#FFFFFF;" d="M418.852,280.416c0.709,0,1.299,0.591,1.299,1.299
			c0,0.709-0.591,1.299-1.299,1.299s-1.299-0.591-1.299-1.299C417.553,281.006,418.143,280.416,418.852,280.416L418.852,280.416z"/>
		<path style="fill-rule:evenodd;clip-rule:evenodd;fill:#FFFFFF;" d="M444.248,279.943c0.709,0,1.299,0.591,1.299,1.299
			s-0.591,1.299-1.299,1.299c-0.709,0-1.299-0.591-1.299-1.299S443.539,279.943,444.248,279.943L444.248,279.943z"/>
		<path style="fill-rule:evenodd;clip-rule:evenodd;fill:#FFFFFF;" d="M346.917,226.79c0.709,0,1.299,0.591,1.299,1.299
			c0,0.709-0.591,1.299-1.299,1.299c-0.709,0-1.299-0.591-1.299-1.299C345.618,227.38,346.208,226.79,346.917,226.79L346.917,226.79
			z"/>
		<path style="fill-rule:evenodd;clip-rule:evenodd;fill:#FFFFFF;" d="M345.618,200.921c0.709,0,1.299,0.591,1.299,1.299
			c0,0.709-0.591,1.299-1.299,1.299c-0.709,0-1.299-0.591-1.299-1.299C344.318,201.512,344.909,200.921,345.618,200.921
			L345.618,200.921z"/>
		<path style="fill-rule:evenodd;clip-rule:evenodd;fill:#FFFFFF;" d="M283.959,164.186c0.709,0,1.299,0.472,1.299,1.299
			c0,0.709-0.591,1.299-1.299,1.299c-0.709,0-1.299-0.591-1.299-1.299C282.66,164.659,283.251,164.186,283.959,164.186
			L283.959,164.186z"/>
		<path style="fill-rule:evenodd;clip-rule:evenodd;fill:#FFFFFF;" d="M180.841,208.717c0.709,0,1.299,0.591,1.299,1.299
			c0,0.709-0.591,1.299-1.299,1.299c-0.709,0-1.299-0.591-1.299-1.299C179.542,209.308,180.132,208.717,180.841,208.717
			L180.841,208.717z"/>
		<path style="fill-rule:evenodd;clip-rule:evenodd;fill:#FFFFFF;" d="M164.777,183.322c0.709,0,1.299,0.591,1.299,1.299
			c0,0.709-0.591,1.299-1.299,1.299c-0.709,0-1.299-0.591-1.299-1.299C163.477,183.912,164.068,183.322,164.777,183.322
			L164.777,183.322z"/>
		<path style="fill-rule:evenodd;clip-rule:evenodd;fill:#FFFFFF;" d="M81.975,253.248c0.709,0,1.299,0.591,1.299,1.299
			s-0.591,1.299-1.299,1.299c-0.709,0-1.299-0.591-1.299-1.299S81.266,253.248,81.975,253.248L81.975,253.248z"/>
		<path style="fill-rule:evenodd;clip-rule:evenodd;fill:#FFFFFF;" d="M135.837,280.18c0.709,0,1.299,0.591,1.299,1.299
			s-0.591,1.299-1.299,1.299c-0.709,0-1.299-0.591-1.299-1.299S135.129,280.18,135.837,280.18L135.837,280.18z"/>
		<path style="fill-rule:evenodd;clip-rule:evenodd;fill:#FFFFFF;" d="M150.248,263.643c0.827,0,1.299,0.473,1.299,1.299
			c0,0.709-0.472,1.299-1.299,1.299c-0.709,0-1.181-0.591-1.181-1.299C149.067,264.115,149.539,263.643,150.248,263.643
			L150.248,263.643z"/>
	</g>
	<g>
		<path style="fill:#666666;" d="M248.642,240.137l17.6,14.647l17.718,14.765c7.323,6.024,8.386,16.891,2.244,24.214
			c-3.426,4.134-8.268,6.26-13.229,6.26l0,0H237.42h-35.436c-9.568,0-17.364-7.678-17.364-17.245c0-5.906,2.953-11.103,7.56-14.292
			l16.537-13.702l17.718-14.765C233.05,234.585,242.381,234.822,248.642,240.137L248.642,240.137z"/>
		<path style="fill-rule:evenodd;clip-rule:evenodd;fill:#333333;" d="M271.557,259.154l12.403,10.395l0,0h-93.196
			c0.472-0.354,0.945-0.709,1.417-1.063l11.221-9.331H271.557z"/>
		<path style="fill-rule:evenodd;clip-rule:evenodd;fill:#CCCCCC;" d="M256.319,243.799l-2.599,3.189l-6.378-5.315l2.599-3.189
			L256.319,243.799z M247.697,236.83l-2.126,3.544h-0.118v-0.118h-0.118l0,0l-0.118-0.118h-0.118l0,0l-0.118-0.118l0,0l-0.118-0.118
			h-0.118l0,0l-0.118-0.118h-0.118l0,0l-0.118-0.118l0,0h-0.118h-0.118v-0.118h-0.118h-0.118v-0.118h-0.118l0,0l-0.118-0.118h-0.118
			l0,0h-0.118l-0.118-0.118l0,0h-0.118h-0.118v-0.118h-0.118l0,0h-0.118l-0.118-0.118l0,0h-0.118h-0.118v-0.118h-0.118h-0.118l0,0
			h-0.118l-0.118-0.118l0,0h-0.118h-0.118l0,0l-0.118-0.118h-0.118l0,0h-0.118h-0.118v-0.118H241.2h-0.118l0,0h-0.118h-0.118v-0.118
			h-0.118h-0.118l0,0h-0.118h-0.118l0,0l-0.118-0.118h-0.118l0,0h-0.118h-0.118l0,0h-0.118h-0.118h-0.118v-0.118h-0.118h-0.118l0,0
			h-0.118h-0.118l0,0h-0.118h-0.118l0,0h-0.118l0,0l0.236-4.134h0.118h0.118h0.118l0,0h0.118h0.118h0.118h0.118h0.118l0.118,0.118
			h0.118l0,0h0.118h0.118h0.118h0.118l0.118,0.118h0.118l0,0h0.118h0.118h0.118h0.118l0.118,0.118h0.118l0,0h0.118h0.118
			l0.118,0.118h0.118h0.118h0.118l0,0l0.118,0.118h0.118h0.118h0.118l0.118,0.118h0.118l0,0h0.118l0.118,0.118h0.118h0.118h0.118
			v0.118h0.118h0.118l0.118,0.118h0.118h0.118l0,0l0.118,0.118h0.118h0.118l0.118,0.118h0.118l0,0l0.118,0.118h0.118h0.118
			l0.118,0.118l0,0h0.118l0.118,0.118h0.118l0.118,0.118l0,0h0.118l0.118,0.118h0.118h0.118v0.118h0.118l0.118,0.118h0.118
			l0.118,0.118l0,0h0.118l0.118,0.118h0.118l0.118,0.118l0,0l0.118,0.118h0.118l0.118,0.118l0,0h0.118L247.697,236.83
			L247.697,236.83z M234.349,234.113l0.709,4.134h-0.118l0,0h-0.118h-0.118v0.118h-0.118h-0.118l0,0h-0.118h-0.118l0,0l-0.118,0.118
			h-0.118h-0.118l0,0h-0.118h-0.118v0.118h-0.118h-0.118l0,0h-0.118h-0.118v0.118h-0.118h-0.118l0,0h-0.118l-0.118,0.118l0,0h-0.118
			h-0.118v0.118h-0.118h-0.118l0,0l-0.118,0.118h-0.118l0,0h-0.118v0.118h-0.118h-0.118l0,0l-0.118,0.118h-0.118l0,0l-0.118,0.118
			h-0.118l0,0h-0.118l-0.118,0.118l0,0h-0.118l-0.118,0.118l0,0h-0.118v0.118h-0.118h-0.118v0.118h-0.118h-0.118v0.118h-0.118l0,0
			l-0.118,0.118h-0.118l0,0l-0.118,0.118h-0.118v0.118h-0.118l0,0l-0.118,0.118h-0.118v0.118h-0.118l0,0l-0.118,0.118h-0.118v0.118
			h-0.118l0,0l-0.118,0.118h-0.118v0.118l0,0l-2.481-3.307l0,0l0.118-0.118l0,0l0.118-0.118l0.118-0.118h0.118v-0.118h0.118
			l0.118-0.118h0.118v-0.118h0.118l0.118-0.118h0.118l0.118-0.118l0,0l0.118-0.118h0.118l0.118-0.118l0,0l0.118-0.118h0.118h0.118
			l0.118-0.118l0,0l0.118-0.118h0.118l0.118-0.118h0.118l0,0l0.118-0.118h0.118l0.118-0.118h0.118v-0.118h0.118h0.118l0.118-0.118
			h0.118h0.118v-0.118h0.118l0.118-0.118h0.118h0.118l0.118-0.118l0,0h0.118l0.118-0.118h0.118h0.118l0.118-0.118l0,0h0.118h0.118
			l0.118-0.118h0.118h0.118v-0.118h0.118h0.118h0.118l0.118-0.118h0.118h0.118l0,0l0.118-0.118h0.118h0.118h0.118l0.118-0.118h0.118
			l0,0h0.118h0.118l0.118-0.118h0.118h0.118h0.118l0,0l0.118-0.118h0.118h0.118h0.118h0.118h0.118L234.349,234.113L234.349,234.113z
			 M222.655,240.491l2.599,3.189l-6.378,5.315l-2.599-3.189L222.655,240.491z M213.088,248.405l2.599,3.189l-5.67,4.725
			l-0.709,0.591l-2.599-3.189l0.709-0.591L213.088,248.405z M203.52,256.319l2.599,3.189l-6.26,5.315l-2.717-3.189L203.52,256.319z
			 M193.952,264.352l2.717,3.189l-3.189,2.599h-0.118v0.118h-0.118l0,0l0,0l-0.118,0.118l0,0h-0.118v0.118l0,0h-0.118l0,0v0.118
			h-0.118l0,0l-0.118,0.118l0,0l0,0h-0.118v0.118h-0.118l0,0v0.118h-0.118l0,0v0.118h-0.118l0,0l0,0l-0.118,0.118l0,0h-0.118v0.118
			l0,0h-0.118v0.118l0,0h-0.118v0.118l0,0h-0.118v0.118l0,0h-0.118v0.118h-0.118l0,0v0.118h-0.118l0,0v0.118h-0.118l0,0v0.118
			h-0.118l0,0v0.118h-0.118l0,0v0.118h-0.118l0,0v0.118h-0.118l0,0v0.118l0,0h-0.118l-3.071-2.717l0,0l0.118-0.118l0,0l0.118-0.118
			l0,0l0,0l0.118-0.118l0,0l0.118-0.118l0,0v-0.118h0.118v-0.118h0.118l0,0l0.118-0.118l0,0v-0.118h0.118v-0.118h0.118l0,0
			l0.118-0.118l0,0v-0.118h0.118l0,0l0.118-0.118l0,0l0.118-0.118l0,0l0.118-0.118l0,0h0.118v-0.118l0,0l0.118-0.118l0,0h0.118
			v-0.118h0.118l0,0l0.118-0.118l0,0l0.118-0.118l0,0h0.118v-0.118h0.118v-0.118h0.118l0,0v-0.118h0.118l0,0l0.118-0.118l0,0h0.118
			v-0.118h0.118v-0.118h0.118l0,0l0.118-0.118l0,0L193.952,264.352z M184.857,273.683l3.662,2.008l0,0l-0.118,0.118l0,0l0,0v0.118
			h-0.118v0.118l0,0v0.118l0,0h-0.118v0.118l0,0v0.118l0,0l-0.118,0.118l0,0v0.118l0,0l0,0l-0.118,0.118l0,0v0.118l0,0v0.118h-0.118
			v0.118l0,0l0,0v0.118l0,0l-0.118,0.118l0,0v0.118l0,0v0.118l0,0l-0.118,0.118l0,0l0,0v0.118l0,0v0.118h-0.118v0.118l0,0v0.118l0,0
			v0.118l0,0l-0.118,0.118l0,0v0.118l0,0l0,0v0.118l0,0l-0.118,0.118l0,0v0.118l0,0v0.118l0,0v0.118l0,0l-0.118,0.118l0,0v0.118l0,0
			v0.118l0,0v0.118l0,0v0.118l0,0l-0.118,0.118l0,0v0.118l0,0l0,0v0.118l0,0v0.118l0,0v0.118l0,0l-0.118,0.118l0,0v0.118l0,0v0.118
			l0,0v0.118l0,0v0.118l0,0v0.118l0,0v0.118l0,0v0.118l0,0l-0.118,0.118l0,0v0.118l0,0v0.118l0,0v0.118l0,0v0.118l0,0v0.118v0.118
			l0,0v0.118l0,0v0.118l0,0v0.118l0,0v0.118l0,0v0.118l0,0h-4.134v-0.118l0,0v-0.118v-0.118l0,0v-0.118v-0.118l0,0v-0.118l0,0
			v-0.118v-0.118l0,0v-0.118v-0.118l0,0v-0.118v-0.118l0,0v-0.118v-0.118h0.118v-0.118v-0.118l0,0v-0.118l0,0v-0.118v-0.118l0,0
			v-0.118v-0.118l0,0v-0.118l0.118-0.118l0,0v-0.118l0,0v-0.118v-0.118l0,0v-0.118v-0.118l0,0l0.118-0.118l0,0v-0.118v-0.118l0,0
			v-0.118v-0.118l0,0l0.118-0.118l0,0v-0.118v-0.118l0,0v-0.118l0,0v-0.118l0.118-0.118l0,0v-0.118l0,0v-0.118v-0.118h0.118v-0.118
			v-0.118l0,0v-0.118l0,0l0.118-0.118v-0.118l0,0v-0.118l0,0l0.118-0.118v-0.118l0,0v-0.118l0,0v-0.118h0.118V276.4v-0.118l0,0
			l0.118-0.118l0,0v-0.118v-0.118l0,0l0.118-0.118l0,0v-0.118l0,0l0.118-0.118v-0.118l0,0v-0.118l0,0l0.118-0.118l0,0V275.1v-0.118
			h0.118v-0.118l0,0v-0.118h0.118v-0.118v-0.118l0,0l0.118-0.118l0,0v-0.118h0.118v-0.118l0,0v-0.118l0.118-0.118l0,0v-0.118l0,0
			L184.857,273.683z M183.085,287.267l4.016-0.945h0.118v0.118v0.118v0.118l0,0l0.118,0.118v0.118v0.118l0,0l0.118,0.118v0.118
			v0.118l0,0v0.118l0.118,0.118v0.118l0,0v0.118l0.118,0.118v0.118l0,0l0.118,0.118v0.118v0.118l0,0l0.118,0.118v0.118l0,0
			l0.118,0.118v0.118v0.118h0.118v0.118v0.118h0.118v0.118v0.118l0.118,0.118l0,0v0.118l0.118,0.118l0,0v0.118l0.118,0.118l0,0
			l0.118,0.118v0.118l0,0l0.118,0.118v0.118h0.118v0.118v0.118h0.118v0.118l0.118,0.118l0,0l0.118,0.118v0.118l0,0l0.118,0.118
			v0.118h0.118v0.118h0.118v0.118l0.118,0.118l0,0v0.118l0.118,0.118l0,0l0.118,0.118l0,0l0.118,0.118v0.118h0.118v0.118h0.118
			v0.118l0,0l-3.071,2.717l0,0l-0.118-0.118v-0.118h-0.118l-0.118-0.118v-0.118l-0.118-0.118h-0.118v-0.118l-0.118-0.118v-0.118
			l-0.118-0.118h-0.118v-0.118l-0.118-0.118V294h-0.118v-0.118l-0.118-0.118l-0.118-0.118v-0.118l-0.118-0.118l0,0l-0.118-0.118
			v-0.118l-0.118-0.118v-0.118l-0.118-0.118l0,0l-0.118-0.118v-0.118l-0.118-0.118v-0.118l-0.118-0.118l0,0l-0.118-0.118v-0.118
			l-0.118-0.118v-0.118l-0.118-0.118v-0.118l-0.118-0.118l0,0l-0.118-0.118v-0.118v-0.118l-0.118-0.118v-0.118l-0.118-0.118v-0.118
			v-0.118l-0.118-0.118v-0.118h-0.118v-0.118v-0.118l-0.118-0.118v-0.118v-0.118l-0.118-0.118v-0.118l-0.118-0.118v-0.118v-0.118
			l-0.118-0.118v-0.118v-0.118v-0.118l-0.118-0.118v-0.118v-0.118l-0.118-0.118l0,0v-0.118v-0.118l-0.118-0.118v-0.118v-0.118
			v-0.118L183.085,287.267z M190.763,298.488l2.362-3.307h0.118v0.118h0.118h0.118v0.118h0.118l0.118,0.118l0,0l0.118,0.118h0.118
			l0,0l0.118,0.118h0.118v0.118h0.118h0.118v0.118h0.118h0.118v0.118h0.118l0.118,0.118l0,0h0.118l0.118,0.118h0.118l0,0
			l0.118,0.118h0.118l0,0l0.118,0.118h0.118l0,0l0.118,0.118h0.118h0.118v0.118h0.118h0.118l0,0l0.118,0.118h0.118h0.118v0.118
			h0.118h0.118h0.118v0.118h0.118h0.118h0.118v0.118h0.118h0.118h0.118v0.118h0.118h0.118h0.118h0.118v0.118h0.118h0.118h0.118l0,0
			h0.118l0.118,0.118h0.118l0,0h0.118h0.118h0.118l0.118,0.118l0,0h0.118h0.118h0.118h0.118l0,0l-0.591,4.134l0,0h-0.118h-0.118
			l-0.118-0.118h-0.118h-0.118h-0.118h-0.118h-0.118l-0.118-0.118h-0.118h-0.118h-0.118h-0.118l-0.118-0.118h-0.118h-0.118h-0.118
			l-0.118-0.118h-0.118h-0.118h-0.118l-0.118-0.118h-0.118h-0.118l-0.118-0.118h-0.118h-0.118l-0.118-0.118h-0.118h-0.118h-0.118
			l-0.118-0.118h-0.118h-0.118l-0.118-0.118h-0.118v-0.118h-0.118h-0.118l-0.118-0.118h-0.118h-0.118l-0.118-0.118h-0.118
			l-0.118-0.118h-0.118h-0.118l-0.118-0.118l0,0l-0.118-0.118h-0.118l-0.118-0.118h-0.118h-0.118l-0.118-0.118h-0.118l-0.118-0.118
			l0,0l-0.118-0.118h-0.118l-0.118-0.118h-0.118l-0.118-0.118h-0.118v-0.118h-0.118l-0.118-0.118h-0.118l-0.118-0.118h-0.118v-0.118
			h-0.118l-0.118-0.118h-0.118l-0.118-0.118l-0.118-0.118l0,0L190.763,298.488z M203.756,302.032v-4.134h8.268v4.134H203.756z
			 M216.159,302.032v-4.134h8.268v4.134H216.159z M228.561,302.032v-4.134h8.268v4.134H228.561z M240.964,302.032v-4.134h8.386
			v4.134H240.964z M253.485,302.032v-4.134h8.268v4.134H253.485z M265.887,302.032v-4.134h5.079h2.008v1.89v0.118v0.118v1.772v0.236
			h0.118l1.063-1.063l0.945-0.945v2.008h-2.126H265.887z M270.966,297.897L270.966,297.897h2.008h0.118l0,0h0.118l0,0h0.118l0,0l0,0
			h0.118l0,0h0.118l0,0h0.118l0,0l0,0h0.118l0,0h0.118l0,0l0,0l0.236,2.008 M275.1,299.905v0.118 M275.1,299.905h-2.126
			 M278.762,301.087l-1.181-3.898l0,0l0,0h0.118v-0.118h0.118l0,0l0,0h0.118l0,0h0.118v-0.118h0.118l0,0l0,0h0.118l0,0h0.118v-0.118
			l0,0h0.118l0,0h0.118l0,0v-0.118h0.118l0,0h0.118l0,0l0,0l0.118-0.118l0,0h0.118l0,0l0,0h0.118v-0.118h0.118l0,0l0,0h0.118l0,0
			l0.118-0.118l0,0l0,0h0.118l0,0v-0.118h0.118l0,0h0.118l0,0v-0.118h0.118l0,0h0.118l0,0v-0.118h0.118l0,0l0,0h0.118v-0.118h0.118
			l0,0l0,0l0.118-0.118l0,0h0.118l0,0l0,0l0.118-0.118l0,0l0,0h0.118v-0.118h0.118l0,0l0,0h0.118v-0.118l0,0h0.118l0,0v-0.118h0.118
			l0,0h0.118v-0.118l0,0h0.118l0,0v-0.118h0.118l0,0l0,0l0.118-0.118l0,0h0.118v-0.118l0,0h0.118l0,0v-0.118h0.118l0,0l0,0
			l0.118-0.118l0,0l0,0l0.118-0.118l0,0l0,0h0.118v-0.118l0,0h0.118v-0.118h0.118l0,0l0,0l0.118-0.118l0,0l0,0l0.118-0.118l0,0l0,0
			l0.118-0.118l0,0l0,0h0.118v-0.118l0,0h0.118v-0.118l0,0h0.118v-0.118l0,0h0.118v-0.118l0,0l2.953,2.953l0,0l-0.118,0.118l0,0
			h-0.118v0.118l0,0l-0.118,0.118l0,0h-0.118v0.118h-0.118v0.118l0,0h-0.118v0.118h-0.118v0.118h-0.118l0,0v0.118h-0.118l0,0
			l-0.118,0.118l0,0l-0.118,0.118l0,0l0,0l-0.118,0.118l0,0h-0.118v0.118h-0.118l0,0l-0.118,0.118l0,0v0.118h-0.118l0,0
			l-0.118,0.118l0,0h-0.118v0.118h-0.118l0,0l-0.118,0.118l0,0l0,0l-0.118,0.118l0,0h-0.118v0.118h-0.118l0,0l-0.118,0.118l0,0
			h-0.118l0,0l-0.118,0.118l0,0l0,0l-0.118,0.118l0,0h-0.118v0.118h-0.118l0,0h-0.118v0.118h-0.118l0,0l-0.118,0.118l0,0h-0.118
			v0.118h-0.118l0,0h-0.118v0.118h-0.118l0,0h-0.118v0.118h-0.118l0,0v0.118h-0.118l0,0h-0.118v0.118h-0.118l0,0h-0.118v0.118
			h-0.118l0,0h-0.118v0.118h-0.118l0,0h-0.118v0.118h-0.118l0,0h-0.118l0,0l-0.118,0.118l0,0h-0.118l0,0l-0.118,0.118h-0.118l0,0
			h-0.118l0,0l-0.118,0.118l0,0h-0.118l0,0h-0.118v0.118h-0.118l0,0h-0.118l0,0l-0.118,0.118l0,0h-0.118l0,0h-0.118v0.118h-0.118
			l0,0h-0.118l0,0h-0.118v0.118h-0.118l0,0h-0.118H278.762L278.762,301.087z M289.511,292.7l-3.544-2.126l0,0l0.118-0.118v-0.118
			l0,0l0.118-0.118v-0.118l0.118-0.118l0,0v-0.118l0.118-0.118l0,0v-0.118l0.118-0.118l0,0l0.118-0.118v-0.118v-0.118h0.118v-0.118
			v-0.118h0.118v-0.118v-0.118l0.118-0.118l0,0v-0.118v-0.118l0.118-0.118l0,0v-0.118l0.118-0.118l0,0v-0.118v-0.118l0.118-0.118
			l0,0v-0.118v-0.118l0.118-0.118l0,0v-0.118v-0.118v-0.118h0.118v-0.118v-0.118v-0.118l0,0l0.118-0.118v-0.118v-0.118l0,0v-0.118
			l0.118-0.118v-0.118l0,0v-0.118v-0.118v-0.118l0,0l0.118-0.118v-0.118v-0.118v-0.118l0,0v-0.118v-0.118v-0.118h0.118v-0.118
			v-0.118v-0.118l0,0v-0.118v-0.118v-0.118v-0.118l0,0v-0.118l0,0l4.134,0.236l0,0v0.118v0.118v0.118v0.118v0.118v0.118v0.118v0.118
			l-0.118,0.118v0.118v0.118v0.118v0.118v0.118v0.118l-0.118,0.118v0.118v0.118v0.118v0.118v0.118l-0.118,0.118v0.118v0.118v0.118
			l0,0l-0.118,0.118v0.118v0.118v0.118l-0.118,0.118v0.118v0.118v0.118l-0.118,0.118v0.118v0.118v0.118l-0.118,0.118v0.118v0.118
			l-0.118,0.118v0.118v0.118l-0.118,0.118v0.118l0,0l-0.118,0.118v0.118v0.118l-0.118,0.118v0.118v0.118l-0.118,0.118v0.118
			l-0.118,0.118v0.118v0.118l-0.118,0.118v0.118h-0.118v0.118v0.118l-0.118,0.118v0.118l-0.118,0.118v0.118l-0.118,0.118v0.118
			l-0.118,0.118v0.118h-0.118v0.118l-0.118,0.118v0.118l-0.118,0.118v0.118L289.511,292.7L289.511,292.7z M291.991,279.353
			l-4.134,0.709l0,0v-0.118v-0.118v-0.118l0,0v-0.118l-0.118-0.118v-0.118l0,0v-0.118v-0.118v-0.118h-0.118v-0.118v-0.118v-0.118
			l0,0l-0.118-0.118v-0.118v-0.118l0,0l-0.118-0.118v-0.118v-0.118l0,0v-0.118l-0.118-0.118v-0.118l0,0l-0.118-0.118v-0.118l0,0
			v-0.118l-0.118-0.118v-0.118l0,0l-0.118-0.118v-0.118l0,0v-0.118l-0.118-0.118V276.4l0,0l-0.118-0.118v-0.118l0,0l-0.118-0.118
			v-0.118l0,0l-0.118-0.118v-0.118l-0.118-0.118l0,0v-0.118l-0.118-0.118l0,0v-0.118l-0.118-0.118l0,0l-0.118-0.118v-0.118l0,0
			l-0.118-0.118v-0.118h-0.118v-0.118l-0.118-0.118l0,0v-0.118l-0.118-0.118l0,0l-0.118-0.118v-0.118h-0.118v-0.118l-0.118-0.118
			l0,0l-0.118-0.118l0,0v-0.118l3.189-2.481h0.118v0.118l0.118,0.118l0.118,0.118l0,0l0.118,0.118v0.118l0.118,0.118l0.118,0.118
			v0.118h0.118v0.118l0.118,0.118v0.118l0.118,0.118v0.118h0.118v0.118l0.118,0.118l0.118,0.118v0.118l0.118,0.118v0.118h0.118
			v0.118v0.118l0.118,0.118v0.118l0.118,0.118v0.118l0.118,0.118l0,0l0.118,0.118v0.118l0.118,0.118v0.118v0.118l0.118,0.118v0.118
			l0.118,0.118v0.118l0,0l0.118,0.118v0.118l0.118,0.118v0.118v0.118l0.118,0.118v0.118v0.118l0.118,0.118v0.118v0.118h0.118v0.118
			v0.118l0.118,0.118v0.118v0.118v0.118l0.118,0.118v0.118v0.118l0.118,0.118v0.118v0.118v0.118l0.118,0.118v0.118v0.118v0.118
			l0.118,0.118l0,0v0.118v0.118v0.118l0.118,0.118v0.118v0.118V279.353z M285.022,267.659l-2.599,3.189l-6.378-5.315l2.599-3.189
			L285.022,267.659z M275.455,259.745l-2.599,3.189l-6.378-5.315l2.599-3.189L275.455,259.745z M265.887,251.713l-2.599,3.189
			l-6.378-5.197l2.599-3.189L265.887,251.713z"/>
		<path style="fill:#666666;" d="M200.094,259.154h5.788l0.236,0.354l-6.26,5.315l-2.717-3.189L200.094,259.154z M268.368,259.154
			h6.497l0.591,0.591l-2.599,3.189L268.368,259.154z M283.487,269.549h-2.717l-4.725-4.016l2.599-3.189l6.378,5.315L283.487,269.549
			z M194.189,269.549h-6.378l0,0l0.118-0.118l0,0v-0.118h0.118v-0.118h0.118l0,0l0.118-0.118l0,0v-0.118h0.118v-0.118h0.118l0,0
			l0.118-0.118l0,0v-0.118h0.118l0,0l0.118-0.118l0,0l0.118-0.118l0,0l0.118-0.118l0,0h0.118v-0.118l0,0l0.118-0.118l0,0h0.118
			v-0.118h0.118l0,0l0.118-0.118l0,0l0.118-0.118l0,0h0.118v-0.118h0.118v-0.118h0.118l0,0v-0.118h0.118l0,0l0.118-0.118l0,0h0.118
			v-0.118h0.118v-0.118h0.118l0,0l0.118-0.118l0,0l3.071-2.48l2.717,3.189L194.189,269.549z"/>
		<path style="fill-rule:evenodd;clip-rule:evenodd;fill:#333333;" d="M267.068,294.118L267.068,294.118h5.906
			c3.425,0,6.497-1.536,8.741-4.134c3.898-4.725,3.307-11.93-1.536-15.946l-35.318-29.412l0,0
			c-4.252-3.544-10.395-3.662-14.647-0.118l-34.491,28.703l-0.236,0.236c-3.071,2.126-4.961,5.552-4.961,9.331
			c0,6.26,5.079,11.339,11.458,11.339H267.068z"/>
		<polygon style="fill-rule:evenodd;clip-rule:evenodd;" points="274.746,269.549 262.344,259.154 212.615,259.154 200.094,269.549 
					"/>
		<path style="fill-rule:evenodd;clip-rule:evenodd;fill:#1A1A1A;" d="M237.42,241.909c-2.599,0-5.079,0.827-7.205,2.599
			l-34.491,28.703l-0.236,0.236c-3.071,2.126-4.961,5.552-4.961,9.331c0,6.26,5.079,11.339,11.458,11.339h35.436V241.909z"/>
		<polygon style="fill-rule:evenodd;clip-rule:evenodd;" points="212.615,259.154 200.094,269.549 237.42,269.549 237.42,259.154 		
			"/>
		<path style="fill-rule:evenodd;clip-rule:evenodd;fill:#999999;" d="M271.202,271.675c5.788,0,10.395,4.725,10.395,10.395
			c0,5.788-4.607,10.395-10.395,10.395c-5.67,0-10.276-4.607-10.276-10.395C260.926,276.4,265.533,271.675,271.202,271.675
			L271.202,271.675z"/>
		<path style="fill-rule:evenodd;clip-rule:evenodd;fill:#999999;" d="M203.638,271.675c5.67,0,10.276,4.725,10.276,10.395
			c0,5.788-4.607,10.395-10.276,10.395c-5.788,0-10.395-4.607-10.395-10.395C193.244,276.4,197.85,271.675,203.638,271.675
			L203.638,271.675z"/>
		<path style="fill-rule:evenodd;clip-rule:evenodd;fill:#CCCCCC;" d="M271.202,271.675c5.788,0,10.395,4.725,10.395,10.395v0.118
			h-20.671v-0.118C260.926,276.4,265.533,271.675,271.202,271.675L271.202,271.675z"/>
		<path style="fill-rule:evenodd;clip-rule:evenodd;fill:#CCCCCC;" d="M203.638,271.675c5.67,0,10.276,4.725,10.276,10.395v0.118
			h-20.671v-0.118C193.244,276.4,197.85,271.675,203.638,271.675L203.638,271.675z"/>
		<path style="fill-rule:evenodd;clip-rule:evenodd;fill:#CCCCCC;" d="M237.42,244.153c5.67,0,10.395,4.607,10.395,10.276
			c0,5.788-4.725,10.395-10.395,10.395c-5.67,0-10.395-4.607-10.395-10.395C227.026,248.76,231.751,244.153,237.42,244.153
			L237.42,244.153z"/>
		<path style="fill-rule:evenodd;clip-rule:evenodd;fill:#DDFF63;" d="M237.42,155.563L237.42,155.563
			c21.734,0,39.57,17.718,39.57,39.57v57.76h-79.14v-57.76C197.85,173.281,215.686,155.563,237.42,155.563L237.42,155.563z"/>
		<path style="fill-rule:evenodd;clip-rule:evenodd;fill:#D5FF3F;" d="M271.557,252.894H197.85v-57.76
			c0-20.198,15.356-37.09,34.963-39.334c21.38,0.472,38.743,18.072,38.743,39.57V252.894z"/>
		<path style="fill-rule:evenodd;clip-rule:evenodd;fill:#2EBD33;" d="M212.379,223.6c9.568-19.372,40.751-19.372,50.319,0H212.379z
			"/>
		<path style="fill-rule:evenodd;clip-rule:evenodd;fill:#B3B3B3;" d="M195.133,227.144h84.574c4.961,0,9.095,4.016,9.095,8.977
			v20.198c0,4.961-4.134,9.095-9.095,9.095h-84.574c-4.961,0-9.095-4.134-9.095-9.095v-20.198
			C186.038,231.16,190.172,227.144,195.133,227.144L195.133,227.144z"/>
		<path style="fill-rule:evenodd;clip-rule:evenodd;fill:#CCCCCC;" d="M195.133,227.144h84.574c4.961,0,9.095,4.016,9.095,8.977
			v11.339c-2.126,2.362-5.315,3.78-8.977,3.78h-84.81c-3.662,0-6.851-1.417-8.977-3.78v-11.339
			C186.038,231.16,190.172,227.144,195.133,227.144L195.133,227.144z"/>
		<path style="fill:#666666;" d="M184.857,235.53h6.024c1.536,0,2.717,1.299,2.717,2.717v15.946c0,1.536-1.181,2.717-2.717,2.717
			h-6.024c-1.417,0-2.599-1.181-2.599-2.717v-15.946C182.258,236.83,183.44,235.53,184.857,235.53L184.857,235.53z"/>
		<path style="fill-rule:evenodd;clip-rule:evenodd;fill:#333333;" d="M183.558,235.53h2.953c0.827,0,1.417,0.709,1.417,1.417
			v18.545c0,0.827-0.591,1.417-1.417,1.417h-2.953c-0.709,0-1.299-0.591-1.299-1.417v-18.545
			C182.258,236.239,182.849,235.53,183.558,235.53L183.558,235.53z"/>
		<path style="fill:#666666;" d="M182.14,248.996h2.008c0.472,0,0.945,0.472,0.945,0.945v3.898c0,0.472-0.472,0.827-0.945,0.827
			h-2.008c-0.591,0-0.945-0.354-0.945-0.827v-3.898C181.195,249.468,181.55,248.996,182.14,248.996L182.14,248.996z"/>
		<path style="fill:#666666;" d="M182.14,237.775h2.008c0.472,0,0.945,0.354,0.945,0.827v3.898c0,0.591-0.472,0.945-0.945,0.945
			h-2.008c-0.591,0-0.945-0.354-0.945-0.945v-3.898C181.195,238.129,181.55,237.775,182.14,237.775L182.14,237.775z"/>
		<path style="fill-rule:evenodd;clip-rule:evenodd;fill:#B3B3B3;" d="M197.142,223.6h80.558c0.472,0,0.827,0.472,0.827,0.827v1.89
			c0,0.472-0.354,0.827-0.827,0.827h-80.558c-0.472,0-0.827-0.354-0.827-0.827v-1.89C196.315,224.073,196.669,223.6,197.142,223.6
			L197.142,223.6z"/>
		<path style="fill-rule:evenodd;clip-rule:evenodd;fill:#33CC33;" d="M210.961,182.849c-1.536,8.386-1.536,22.679,1.299,26.104
			c9.45,11.812,40.987,11.812,50.555,0c2.717-3.425,2.717-17.718,1.181-26.104C261.989,172.455,212.97,172.455,210.961,182.849
			L210.961,182.849z"/>
		<path style="fill-rule:evenodd;clip-rule:evenodd;fill:#5FDE35;" d="M210.961,182.849c-1.536,8.386-1.536,22.679,1.299,26.104
			c4.725,5.906,15.001,8.859,25.278,8.859v-42.759C224.781,175.053,212.025,177.652,210.961,182.849L210.961,182.849z"/>
		<path style="fill-rule:evenodd;clip-rule:evenodd;" d="M228.916,193.362c1.299,0,2.244,1.063,2.244,2.362
			c0,1.299-0.945,2.362-2.244,2.362s-2.362-1.063-2.362-2.362C226.553,194.425,227.616,193.362,228.916,193.362L228.916,193.362z"/>
		<path style="fill-rule:evenodd;clip-rule:evenodd;" d="M246.161,193.362c1.299,0,2.244,1.063,2.244,2.362
			c0,1.299-0.945,2.362-2.244,2.362c-1.299,0-2.362-1.063-2.362-2.362C243.799,194.425,244.862,193.362,246.161,193.362
			L246.161,193.362z"/>
		<path style="fill-rule:evenodd;clip-rule:evenodd;fill:#FF8B95;" d="M216.749,201.276c2.953,0,5.315,2.362,5.315,5.315
			c0,2.953-2.362,5.315-5.315,5.315c-2.953,0-5.434-2.362-5.434-5.315C211.316,203.638,213.796,201.276,216.749,201.276
			L216.749,201.276z"/>
		<path style="fill-rule:evenodd;clip-rule:evenodd;fill:#FF8B95;" d="M258.327,201.276c2.953,0,5.315,2.362,5.315,5.315
			c0,2.953-2.362,5.315-5.315,5.315c-2.953,0-5.434-2.362-5.434-5.315C252.894,203.638,255.374,201.276,258.327,201.276
			L258.327,201.276z"/>
		<path style="fill-rule:evenodd;clip-rule:evenodd;" d="M240.019,204.111c3.071,0,5.552,2.48,5.552,5.552h-10.985
			C234.585,206.591,237.066,204.111,240.019,204.111L240.019,204.111z"/>
		<path style="fill-rule:evenodd;clip-rule:evenodd;fill:#5FDE35;" d="M226.199,165.722c1.417,0,2.481,1.181,2.481,2.599
			c0,1.299-1.063,2.48-2.481,2.48s-2.481-1.181-2.481-2.48C223.718,166.903,224.781,165.722,226.199,165.722L226.199,165.722z"/>
		<polygon style="fill-rule:evenodd;clip-rule:evenodd;fill:#5FDE35;" points="225.608,168.911 226.199,168.911 226.79,168.911 
			227.262,180.369 226.199,180.369 225.136,180.369 		"/>
		<path style="fill-rule:evenodd;clip-rule:evenodd;fill:#33CC33;" d="M248.878,165.722c1.299,0,2.48,1.181,2.48,2.599
			c0,1.299-1.181,2.48-2.48,2.48c-1.417,0-2.599-1.181-2.599-2.48C246.279,166.903,247.46,165.722,248.878,165.722L248.878,165.722z
			"/>
		<polygon style="fill-rule:evenodd;clip-rule:evenodd;fill:#33CC33;" points="248.287,168.911 248.878,168.911 249.35,168.911 
			249.941,180.369 248.878,180.369 247.697,180.369 		"/>
		<path style="fill-rule:evenodd;clip-rule:evenodd;fill:#A43737;" d="M211.788,212.97L211.788,212.97
			c1.181,0,2.244,1.063,2.244,2.244v4.725c0,1.299-1.063,2.244-2.244,2.244l0,0c-1.299,0-2.362-0.945-2.362-2.244v-4.725
			C209.426,214.033,210.489,212.97,211.788,212.97L211.788,212.97z"/>
		<path style="fill-rule:evenodd;clip-rule:evenodd;fill:#A43737;" d="M262.934,212.97L262.934,212.97
			c1.181,0,2.244,1.063,2.244,2.244v4.725c0,1.299-1.063,2.244-2.244,2.244l0,0c-1.299,0-2.362-0.945-2.362-2.244v-4.725
			C260.572,214.033,261.635,212.97,262.934,212.97L262.934,212.97z"/>
		<path style="fill-rule:evenodd;clip-rule:evenodd;fill:#5FDE35;" d="M211.788,215.214c2.953,0,5.434,2.481,5.434,5.434
			c0,3.071-2.481,5.434-5.434,5.434c-3.071,0-5.434-2.362-5.434-5.434C206.355,217.694,208.717,215.214,211.788,215.214
			L211.788,215.214z"/>
		<path style="fill-rule:evenodd;clip-rule:evenodd;fill:#33CC33;" d="M262.934,215.214c2.953,0,5.434,2.481,5.434,5.434
			c0,3.071-2.481,5.434-5.434,5.434c-3.071,0-5.434-2.362-5.434-5.434C257.501,217.694,259.863,215.214,262.934,215.214
			L262.934,215.214z"/>
		<path style="fill-rule:evenodd;clip-rule:evenodd;fill:#FFFFFF;" d="M262.934,168.911c2.362,0,4.252,2.008,4.252,4.37
			c0,2.362-1.89,4.252-4.252,4.252s-4.252-1.89-4.252-4.252C258.682,170.919,260.572,168.911,262.934,168.911L262.934,168.911z"/>
		<rect x="202.103" y="276.4" style="fill-rule:evenodd;clip-rule:evenodd;fill:#E6E6E6;" width="3.071" height="11.694"/>
		<rect x="265.415" y="280.652" style="fill-rule:evenodd;clip-rule:evenodd;fill:#E6E6E6;" width="11.694" height="3.071"/>
		<path style="fill-rule:evenodd;clip-rule:evenodd;fill:#FFFFFF;" d="M279.825,231.278h1.536c1.536,0,2.835,1.299,2.835,2.835l0,0
			c0,1.536-1.299,2.835-2.835,2.835h-1.536c-1.536,0-2.835-1.299-2.835-2.835l0,0C276.99,232.577,278.29,231.278,279.825,231.278
			L279.825,231.278z"/>
		<path style="fill-rule:evenodd;clip-rule:evenodd;fill:#FFFFFF;" d="M248.642,231.278h17.6c1.536,0,2.835,1.299,2.835,2.835l0,0
			c0,1.536-1.299,2.835-2.835,2.835h-17.6c-1.536,0-2.835-1.299-2.835-2.835l0,0C245.807,232.577,247.106,231.278,248.642,231.278
			L248.642,231.278z"/>
		<rect x="270.021" y="297.897" style="fill-rule:evenodd;clip-rule:evenodd;fill:#CCCCCC;" width="5.079" height="4.134"/>
	</g>
	<g>
		<rect x="74.179" y="293.763" style="fill-rule:evenodd;clip-rule:evenodd;fill:#999933;" width="342.192" height="11.339"/>
		<rect x="74.179" y="293.763" style="fill-rule:evenodd;clip-rule:evenodd;fill:#AEAE33;" width="342.192" height="5.434"/>
		<path style="fill-rule:evenodd;clip-rule:evenodd;fill:#AEAE33;" d="M378.455,282.424c-2.717,2.953-8.977,9.45-16.655,11.339
			c-9.568,2.244,20.317,3.189,20.317,4.252c0,0.472,2.362,0.472,5.197,0.236c2.835,0.236,5.079,0.236,5.079-0.236
			c0-1.063,29.884-2.008,20.317-4.252c-7.56-1.89-13.938-8.386-16.537-11.339H378.455z"/>
		<path style="fill-rule:evenodd;clip-rule:evenodd;fill:#AEAE33;" d="M346.681,287.385c-0.945,2.008-3.425,6.497-6.378,7.796
			c-3.662,1.536,7.914,2.244,7.914,2.953c0,0.354,0.827,0.354,1.89,0.118c1.181,0.236,2.008,0.236,2.008-0.118
			c0-0.709,11.576-1.417,7.914-2.953c-2.953-1.299-5.434-5.788-6.378-7.796H346.681z"/>
		<path style="fill-rule:evenodd;clip-rule:evenodd;fill:#AEAE33;" d="M151.665,287.385c-1.063,2.008-3.425,6.497-6.378,7.796
			c-3.78,1.536,7.914,2.244,7.914,2.953c0,0.354,0.827,0.354,1.89,0.118c1.181,0.236,2.008,0.236,2.008-0.118
			c0-0.709,11.576-1.417,7.914-2.953c-2.953-1.299-5.434-5.788-6.497-7.796H151.665z"/>
		<path style="fill-rule:evenodd;clip-rule:evenodd;fill:#AEAE33;" d="M103.709,281.833c-1.536,3.071-5.197,9.804-9.686,11.694
			c-5.552,2.362,11.93,3.307,11.93,4.489c0,0.472,1.299,0.472,2.953,0.236c1.654,0.236,2.953,0.236,2.953-0.236
			c0-1.181,17.364-2.126,11.812-4.489c-4.37-1.89-8.032-8.623-9.568-11.694H103.709z"/>
	</g>
	<g>
		<path style="fill-rule:evenodd;clip-rule:evenodd;fill:#185F64;" d="M92.724,172.809c14.883-14.883,38.979-14.883,53.862,0
			c14.883,14.883,14.883,38.979,0,53.862c-14.883,14.883-38.979,14.883-53.862,0C77.841,211.788,77.841,187.692,92.724,172.809
			L92.724,172.809z"/>
		<path style="fill-rule:evenodd;clip-rule:evenodd;fill:#40797D;" d="M92.724,172.809c14.883-14.883,38.979-14.883,53.862,0
			c14.883,14.883,14.883,38.979,0,53.862L92.724,172.809z"/>
		<path style="fill-rule:evenodd;clip-rule:evenodd;fill:#649296;" d="M110.914,172.691c4.37-4.252,11.339-4.252,15.592,0
			c4.252,4.37,4.252,11.34,0,15.592c-4.252,4.252-11.221,4.252-15.592,0C106.662,184.03,106.662,177.061,110.914,172.691
			L110.914,172.691z"/>
		<path style="fill-rule:evenodd;clip-rule:evenodd;fill:#40797D;" d="M103.118,224.427c1.654-1.654,4.252-1.654,5.906,0
			c1.654,1.654,1.654,4.252,0,5.906c-1.654,1.654-4.252,1.654-5.906,0S101.465,226.081,103.118,224.427L103.118,224.427z"/>
		<path style="fill-rule:evenodd;clip-rule:evenodd;fill:#649296;" d="M99.929,171.628c1.181-1.063,3.071-1.063,4.134,0
			c1.181,1.181,1.181,3.071,0,4.134c-1.063,1.181-2.953,1.181-4.134,0C98.866,174.699,98.866,172.809,99.929,171.628L99.929,171.628
			z"/>
		<path style="fill-rule:evenodd;clip-rule:evenodd;fill:#649296;" d="M139.617,184.621c2.362-2.481,6.378-2.481,8.859,0
			c2.362,2.481,2.362,6.378,0,8.859c-2.481,2.481-6.497,2.481-8.859,0C137.137,190.999,137.137,187.101,139.617,184.621
			L139.617,184.621z"/>
	</g>
	<g>
		<rect x="328.845" y="267.423" style="fill-rule:evenodd;clip-rule:evenodd;fill:#3F3F25;" width="6.26" height="26.341"/>
		<rect x="381.408" y="267.423" style="fill-rule:evenodd;clip-rule:evenodd;fill:#3F3F25;" width="6.26" height="26.341"/>
		<path style="fill-rule:evenodd;clip-rule:evenodd;fill:#00CCFF;" d="M314.316,232.459h87.881c1.89,0,3.425,1.536,3.425,3.425
			v44.885c0,1.89-1.536,3.425-3.425,3.425h-87.881c-1.89,0-3.425-1.536-3.425-3.425v-44.885
			C310.891,233.995,312.426,232.459,314.316,232.459L314.316,232.459z"/>
		<path style="fill-rule:evenodd;clip-rule:evenodd;fill:#2F9DD6;" d="M318.686,234.585h79.14c3.071,0,5.67,2.599,5.67,5.67V276.4
			c0,3.071-2.599,5.67-5.67,5.67h-79.14c-3.189,0-5.788-2.599-5.788-5.67v-36.145C312.899,237.184,315.497,234.585,318.686,234.585
			L318.686,234.585z"/>
		<path style="fill:#FFFFFF;" d="M328.727,259.745l1.89-3.425c0.591-1.181,1.063-2.362,1.654-3.662h0.118
			c-0.118,1.417-0.236,3.425-0.236,4.843v2.244H328.727z M339.357,259.745h-2.126v-11.458h-6.733l-6.969,11.812v3.78h8.623v4.489
			h5.079v-4.489h2.126V259.745z M348.689,268.722c4.489,0,7.56-3.544,7.56-10.513c0-6.851-3.071-10.395-7.56-10.395
			s-7.442,3.544-7.442,10.395C341.247,265.178,344.2,268.722,348.689,268.722L348.689,268.722z M348.689,264.588
			c-1.299,0-2.362-1.063-2.362-6.378c0-5.315,1.063-6.142,2.362-6.142c1.299,0,2.362,0.827,2.362,6.142
			C351.051,263.525,349.988,264.588,348.689,264.588L348.689,264.588z M363.099,259.745l1.772-3.425
			c0.591-1.181,1.181-2.362,1.654-3.662h0.118c0,1.417-0.118,3.425-0.118,4.843v2.244H363.099z M373.73,259.745h-2.126v-11.458
			h-6.851l-6.851,11.812v3.78h8.623v4.489h5.079v-4.489h2.126V259.745z M376.329,265.533c0,1.772,1.299,3.189,3.189,3.189
			s3.189-1.417,3.189-3.189c0-1.89-1.299-3.307-3.189-3.307S376.329,263.643,376.329,265.533L376.329,265.533z M386.487,265.533
			c0,1.772,1.417,3.189,3.189,3.189c1.89,0,3.189-1.417,3.189-3.189c0-1.89-1.299-3.307-3.189-3.307
			C387.905,262.225,386.487,263.643,386.487,265.533L386.487,265.533z"/>
	</g>
	<g>
		
			<text transform="matrix(1 0 0 1 117.3401 351.1143)" style="fill:#4D4D4D; font-family:'SourceSansPro-Light'; font-size:24.8888px; letter-spacing:1;">Oops... page not found</text>
	</g>
</g>
<g id="Designed_by_Freepik">
	<g>
		<g>
			<path style="fill:#808080;" d="M179.552,464.293v-0.161c-0.218,0.249-0.433,0.452-0.644,0.608
				c-0.212,0.157-0.441,0.276-0.689,0.357c-0.247,0.082-0.517,0.122-0.81,0.122c-0.388,0-0.747-0.082-1.078-0.246
				c-0.33-0.164-0.616-0.399-0.857-0.704c-0.242-0.305-0.425-0.662-0.549-1.074c-0.124-0.412-0.187-0.857-0.187-1.335
				c0-1.013,0.247-1.804,0.742-2.369c0.495-0.565,1.146-0.848,1.953-0.848c0.467,0,0.861,0.081,1.181,0.24
				c0.321,0.16,0.633,0.408,0.938,0.739v-2.392c0-0.333,0.066-0.583,0.199-0.754c0.132-0.17,0.321-0.255,0.567-0.255
				c0.245,0,0.434,0.078,0.567,0.234c0.133,0.157,0.199,0.386,0.199,0.691v7.147c0,0.309-0.071,0.54-0.214,0.694
				c-0.142,0.154-0.326,0.231-0.552,0.231c-0.221,0-0.405-0.08-0.549-0.24C179.624,464.817,179.552,464.589,179.552,464.293z
				 M176.364,461.912c0,0.439,0.068,0.813,0.205,1.122c0.137,0.309,0.324,0.541,0.561,0.697c0.238,0.157,0.497,0.236,0.778,0.236
				c0.285,0,0.545-0.074,0.781-0.223c0.235-0.148,0.423-0.376,0.564-0.682c0.141-0.307,0.21-0.691,0.21-1.149
				c0-0.432-0.07-0.803-0.21-1.114c-0.14-0.31-0.33-0.547-0.57-0.712c-0.24-0.164-0.502-0.245-0.786-0.245
				c-0.297,0-0.562,0.084-0.795,0.252c-0.234,0.168-0.415,0.409-0.543,0.724C176.428,461.131,176.364,461.496,176.364,461.912z"/>
			<path style="fill:#808080;" d="M186.698,462.322h-3.169c0.004,0.367,0.078,0.692,0.223,0.973
				c0.144,0.281,0.336,0.493,0.576,0.635c0.24,0.143,0.504,0.213,0.793,0.213c0.194,0,0.371-0.022,0.531-0.067
				c0.16-0.046,0.315-0.117,0.466-0.214c0.15-0.097,0.289-0.201,0.415-0.312c0.126-0.111,0.29-0.262,0.493-0.452
				c0.083-0.071,0.202-0.107,0.357-0.107c0.166,0,0.3,0.046,0.403,0.137c0.103,0.092,0.155,0.219,0.155,0.386
				c0,0.146-0.058,0.317-0.172,0.513c-0.116,0.196-0.289,0.384-0.52,0.564c-0.232,0.18-0.522,0.329-0.873,0.448
				c-0.35,0.119-0.753,0.178-1.208,0.178c-1.04,0-1.85-0.297-2.428-0.891c-0.578-0.593-0.866-1.399-0.866-2.416
				c0-0.479,0.071-0.924,0.213-1.332c0.143-0.41,0.351-0.761,0.623-1.054c0.273-0.293,0.609-0.517,1.009-0.674
				c0.4-0.156,0.843-0.234,1.33-0.234c0.633,0,1.176,0.132,1.629,0.4c0.454,0.267,0.794,0.612,1.019,1.035
				c0.225,0.424,0.339,0.856,0.339,1.294c0,0.408-0.117,0.672-0.35,0.793C187.45,462.261,187.122,462.322,186.698,462.322z
				 M183.528,461.402h2.939c-0.039-0.554-0.19-0.969-0.448-1.244c-0.259-0.275-0.6-0.413-1.024-0.413
				c-0.404,0-0.735,0.139-0.994,0.418C183.741,460.442,183.584,460.855,183.528,461.402z"/>
			<path style="fill:#808080;" d="M194.082,463.099c0,0.447-0.108,0.831-0.327,1.149c-0.217,0.319-0.539,0.56-0.965,0.725
				c-0.425,0.164-0.943,0.246-1.552,0.246c-0.582,0-1.08-0.089-1.496-0.267c-0.415-0.178-0.722-0.401-0.92-0.667
				c-0.198-0.268-0.297-0.535-0.297-0.805c0-0.178,0.063-0.33,0.19-0.456c0.126-0.126,0.287-0.19,0.481-0.19
				c0.17,0,0.3,0.042,0.391,0.125c0.091,0.083,0.178,0.2,0.261,0.35c0.166,0.29,0.366,0.504,0.597,0.648
				c0.231,0.142,0.547,0.214,0.947,0.214c0.324,0,0.59-0.073,0.798-0.217c0.208-0.145,0.311-0.31,0.311-0.496
				c0-0.285-0.107-0.492-0.324-0.622c-0.216-0.131-0.571-0.256-1.066-0.375c-0.558-0.138-1.012-0.284-1.362-0.436
				c-0.35-0.151-0.63-0.353-0.84-0.602c-0.21-0.25-0.315-0.557-0.315-0.92c0-0.324,0.097-0.631,0.291-0.92
				c0.194-0.288,0.48-0.519,0.859-0.691c0.377-0.173,0.833-0.259,1.367-0.259c0.419,0,0.797,0.043,1.131,0.131
				c0.335,0.086,0.614,0.204,0.837,0.35c0.224,0.146,0.394,0.308,0.51,0.486c0.117,0.178,0.175,0.352,0.175,0.523
				c0,0.185-0.062,0.338-0.186,0.457c-0.125,0.118-0.301,0.178-0.532,0.178c-0.166,0-0.308-0.048-0.424-0.143
				c-0.117-0.095-0.25-0.237-0.401-0.427c-0.123-0.158-0.266-0.285-0.433-0.38c-0.166-0.095-0.392-0.142-0.677-0.142
				c-0.293,0-0.536,0.062-0.73,0.187c-0.194,0.124-0.291,0.279-0.291,0.465c0,0.171,0.071,0.31,0.213,0.419
				c0.143,0.109,0.334,0.2,0.576,0.27c0.242,0.071,0.573,0.157,0.997,0.261c0.502,0.123,0.912,0.27,1.231,0.44
				c0.318,0.17,0.56,0.371,0.725,0.603C194,462.538,194.082,462.802,194.082,463.099z"/>
			<path style="fill:#808080;" d="M195.738,457.876c-0.226,0-0.418-0.07-0.579-0.208c-0.16-0.138-0.24-0.334-0.24-0.588
				c0-0.23,0.082-0.418,0.246-0.567c0.164-0.149,0.355-0.223,0.573-0.223c0.21,0,0.396,0.067,0.558,0.202
				c0.162,0.135,0.244,0.33,0.244,0.588c0,0.25-0.08,0.444-0.238,0.585C196.143,457.805,195.955,457.876,195.738,457.876z
				 M196.539,459.549v4.683c0,0.325-0.077,0.571-0.232,0.737c-0.155,0.166-0.35,0.249-0.588,0.249c-0.238,0-0.431-0.085-0.579-0.255
				c-0.149-0.17-0.222-0.414-0.222-0.73v-4.636c0-0.32,0.074-0.561,0.222-0.724c0.148-0.162,0.341-0.243,0.579-0.243
				c0.238,0,0.433,0.081,0.588,0.243C196.462,459.035,196.539,459.261,196.539,459.549z"/>
			<path style="fill:#808080;" d="M203.639,459.817v4.707c0,0.538-0.058,1.001-0.173,1.39c-0.114,0.387-0.298,0.708-0.552,0.961
				c-0.253,0.253-0.585,0.441-0.994,0.563c-0.41,0.123-0.919,0.184-1.529,0.184c-0.558,0-1.056-0.078-1.496-0.234
				c-0.439-0.157-0.777-0.358-1.015-0.605c-0.237-0.247-0.357-0.502-0.357-0.763c0-0.198,0.068-0.36,0.202-0.483
				c0.134-0.125,0.297-0.187,0.487-0.187c0.237,0,0.445,0.105,0.623,0.314c0.087,0.107,0.177,0.216,0.27,0.324
				c0.093,0.109,0.197,0.202,0.309,0.28c0.113,0.076,0.249,0.134,0.406,0.172c0.158,0.037,0.341,0.056,0.546,0.056
				c0.42,0,0.745-0.058,0.977-0.175c0.232-0.117,0.394-0.28,0.487-0.49c0.093-0.209,0.147-0.433,0.163-0.673
				c0.016-0.24,0.027-0.624,0.035-1.155c-0.25,0.349-0.537,0.615-0.864,0.797c-0.326,0.182-0.715,0.273-1.166,0.273
				c-0.542,0-1.016-0.139-1.422-0.416c-0.405-0.277-0.717-0.665-0.934-1.163c-0.218-0.499-0.326-1.074-0.326-1.727
				c0-0.486,0.066-0.927,0.198-1.318c0.133-0.393,0.322-0.723,0.567-0.992c0.245-0.269,0.528-0.472,0.849-0.608
				c0.321-0.136,0.673-0.204,1.057-0.204c0.459,0,0.857,0.089,1.193,0.264c0.336,0.177,0.649,0.453,0.938,0.829v-0.22
				c0-0.281,0.069-0.498,0.208-0.653c0.139-0.154,0.317-0.231,0.535-0.231c0.313,0,0.52,0.103,0.623,0.306
				C203.587,459.139,203.639,459.433,203.639,459.817z M198.943,461.871c0,0.657,0.143,1.154,0.43,1.49
				c0.287,0.337,0.658,0.505,1.113,0.505c0.269,0,0.523-0.073,0.762-0.217c0.24-0.145,0.435-0.362,0.585-0.653
				c0.15-0.291,0.226-0.644,0.226-1.06c0-0.66-0.145-1.176-0.436-1.543c-0.291-0.368-0.674-0.552-1.149-0.552
				c-0.463,0-0.834,0.176-1.113,0.529C199.082,460.721,198.943,461.222,198.943,461.871z"/>
			<path style="fill:#808080;" d="M206.214,459.526v0.196c0.285-0.376,0.596-0.652,0.935-0.828c0.338-0.176,0.727-0.264,1.166-0.264
				c0.427,0,0.809,0.093,1.146,0.28c0.336,0.186,0.588,0.449,0.753,0.789c0.108,0.198,0.176,0.413,0.208,0.641
				c0.032,0.23,0.048,0.522,0.048,0.879v3.015c0,0.325-0.075,0.571-0.223,0.737c-0.148,0.166-0.341,0.249-0.579,0.249
				c-0.242,0-0.437-0.085-0.588-0.255c-0.151-0.17-0.225-0.414-0.225-0.73v-2.701c0-0.534-0.074-0.943-0.223-1.226
				c-0.149-0.283-0.444-0.425-0.888-0.425c-0.288,0-0.552,0.086-0.789,0.258c-0.237,0.173-0.412,0.41-0.522,0.71
				c-0.079,0.242-0.119,0.692-0.119,1.353v2.03c0,0.328-0.077,0.576-0.228,0.74c-0.152,0.164-0.349,0.246-0.59,0.246
				c-0.234,0-0.426-0.085-0.576-0.255c-0.15-0.17-0.225-0.414-0.225-0.73v-4.683c0-0.309,0.067-0.54,0.202-0.692
				c0.135-0.152,0.319-0.228,0.552-0.228c0.143,0,0.272,0.034,0.387,0.101c0.114,0.068,0.207,0.169,0.276,0.302
				C206.179,459.167,206.214,459.332,206.214,459.526z"/>
			<path style="fill:#808080;" d="M216.073,462.322h-3.17c0.004,0.367,0.078,0.692,0.223,0.973c0.144,0.281,0.336,0.493,0.576,0.635
				c0.239,0.143,0.503,0.213,0.792,0.213c0.194,0,0.371-0.022,0.532-0.067c0.16-0.046,0.315-0.117,0.466-0.214
				c0.15-0.097,0.288-0.201,0.416-0.312c0.126-0.111,0.29-0.262,0.492-0.452c0.083-0.071,0.202-0.107,0.356-0.107
				c0.166,0,0.301,0.046,0.404,0.137c0.103,0.092,0.154,0.219,0.154,0.386c0,0.146-0.057,0.317-0.172,0.513
				c-0.115,0.196-0.288,0.384-0.52,0.564c-0.232,0.18-0.522,0.329-0.872,0.448c-0.35,0.119-0.753,0.178-1.208,0.178
				c-1.041,0-1.85-0.297-2.428-0.891c-0.577-0.593-0.866-1.399-0.866-2.416c0-0.479,0.071-0.924,0.214-1.332
				c0.143-0.41,0.351-0.761,0.624-1.054c0.273-0.293,0.609-0.517,1.009-0.674c0.399-0.156,0.843-0.234,1.33-0.234
				c0.633,0,1.176,0.132,1.629,0.4c0.453,0.267,0.793,0.612,1.019,1.035c0.225,0.424,0.338,0.856,0.338,1.294
				c0,0.408-0.117,0.672-0.35,0.793C216.825,462.261,216.497,462.322,216.073,462.322z M212.903,461.402h2.938
				c-0.039-0.554-0.189-0.969-0.448-1.244c-0.259-0.275-0.6-0.413-1.024-0.413c-0.404,0-0.736,0.139-0.995,0.418
				C213.115,460.442,212.959,460.855,212.903,461.402z"/>
			<path style="fill:#808080;" d="M222.679,464.293v-0.161c-0.218,0.249-0.432,0.452-0.644,0.608
				c-0.212,0.157-0.441,0.276-0.688,0.357c-0.247,0.082-0.517,0.122-0.81,0.122c-0.389,0-0.747-0.082-1.078-0.246
				c-0.331-0.164-0.616-0.399-0.858-0.704c-0.242-0.305-0.424-0.662-0.549-1.074c-0.125-0.412-0.187-0.857-0.187-1.335
				c0-1.013,0.247-1.804,0.742-2.369c0.495-0.565,1.146-0.848,1.953-0.848c0.467,0,0.861,0.081,1.181,0.24
				c0.32,0.16,0.633,0.408,0.938,0.739v-2.392c0-0.333,0.066-0.583,0.199-0.754c0.132-0.17,0.322-0.255,0.567-0.255
				c0.245,0,0.434,0.078,0.567,0.234c0.133,0.157,0.199,0.386,0.199,0.691v7.147c0,0.309-0.071,0.54-0.214,0.694
				c-0.143,0.154-0.326,0.231-0.552,0.231c-0.222,0-0.405-0.08-0.549-0.24C222.751,464.817,222.679,464.589,222.679,464.293z
				 M219.492,461.912c0,0.439,0.068,0.813,0.204,1.122c0.137,0.309,0.324,0.541,0.562,0.697c0.237,0.157,0.496,0.236,0.777,0.236
				c0.285,0,0.546-0.074,0.781-0.223c0.236-0.148,0.424-0.376,0.564-0.682c0.141-0.307,0.211-0.691,0.211-1.149
				c0-0.432-0.07-0.803-0.211-1.114c-0.14-0.31-0.33-0.547-0.57-0.712c-0.24-0.164-0.502-0.245-0.787-0.245
				c-0.296,0-0.562,0.084-0.795,0.252c-0.233,0.168-0.414,0.409-0.543,0.724C219.556,461.131,219.492,461.496,219.492,461.912z"/>
			<path style="fill:#808080;" d="M229.303,457.145v2.475c0.304-0.316,0.615-0.559,0.932-0.727c0.316-0.168,0.709-0.252,1.175-0.252
				c0.538,0,1.01,0.128,1.416,0.382c0.405,0.256,0.72,0.626,0.944,1.111c0.223,0.484,0.336,1.06,0.336,1.725
				c0,0.491-0.063,0.94-0.187,1.35c-0.125,0.409-0.306,0.765-0.543,1.065c-0.238,0.301-0.525,0.534-0.864,0.698
				c-0.339,0.164-0.712,0.246-1.119,0.246c-0.25,0-0.484-0.029-0.703-0.089c-0.22-0.059-0.407-0.137-0.561-0.234
				c-0.154-0.096-0.286-0.197-0.395-0.3c-0.109-0.103-0.253-0.258-0.431-0.463v0.161c0,0.304-0.073,0.535-0.22,0.692
				c-0.146,0.156-0.332,0.234-0.558,0.234c-0.23,0-0.413-0.077-0.549-0.234c-0.137-0.157-0.205-0.388-0.205-0.692v-7.077
				c0-0.328,0.066-0.577,0.198-0.745c0.133-0.168,0.318-0.252,0.555-0.252c0.25,0,0.441,0.08,0.576,0.24
				C229.235,456.62,229.303,456.848,229.303,457.145z M229.38,461.96c0,0.645,0.147,1.14,0.442,1.486
				c0.295,0.347,0.682,0.521,1.161,0.521c0.407,0,0.759-0.177,1.053-0.532c0.295-0.355,0.442-0.862,0.442-1.523
				c0-0.427-0.061-0.796-0.184-1.104c-0.123-0.309-0.297-0.548-0.522-0.715c-0.226-0.168-0.489-0.252-0.79-0.252
				c-0.309,0-0.584,0.084-0.825,0.252c-0.242,0.168-0.431,0.411-0.57,0.73C229.449,461.141,229.38,461.52,229.38,461.96z"/>
			<path style="fill:#808080;" d="M236.207,465.42l0.148-0.363l-1.995-5.022c-0.122-0.288-0.184-0.499-0.184-0.629
				c0-0.139,0.036-0.267,0.107-0.385c0.071-0.119,0.169-0.214,0.294-0.285c0.125-0.072,0.255-0.107,0.389-0.107
				c0.233,0,0.409,0.074,0.529,0.223c0.119,0.148,0.223,0.361,0.314,0.638l1.372,3.989l1.3-3.71c0.103-0.3,0.196-0.536,0.279-0.706
				c0.083-0.17,0.171-0.285,0.264-0.344c0.093-0.06,0.225-0.09,0.395-0.09c0.123,0,0.24,0.032,0.353,0.098
				c0.113,0.065,0.2,0.153,0.261,0.264c0.061,0.111,0.092,0.227,0.092,0.35c-0.016,0.075-0.041,0.182-0.077,0.321
				c-0.036,0.138-0.079,0.28-0.13,0.421l-2.113,5.533c-0.183,0.487-0.361,0.868-0.535,1.145c-0.174,0.277-0.404,0.491-0.692,0.638
				c-0.287,0.149-0.674,0.223-1.161,0.223c-0.475,0-0.831-0.051-1.068-0.154c-0.238-0.104-0.356-0.292-0.356-0.564
				c0-0.186,0.056-0.33,0.169-0.43c0.112-0.101,0.28-0.152,0.501-0.152c0.087,0,0.173,0.012,0.256,0.037
				c0.103,0.023,0.192,0.035,0.267,0.035c0.186,0,0.333-0.027,0.44-0.084c0.106-0.055,0.202-0.151,0.288-0.288
				C235.998,465.887,236.096,465.685,236.207,465.42z"/>
		</g>
		<g>
			<path style="fill:#808080;" d="M259.683,458.769h0.386v-0.487c0-0.509,0.062-0.911,0.192-1.211
				c0.128-0.299,0.347-0.516,0.654-0.653c0.307-0.136,0.727-0.204,1.26-0.204c0.95,0,1.42,0.229,1.42,0.697
				c0,0.149-0.049,0.278-0.15,0.384c-0.096,0.106-0.214,0.16-0.349,0.16c-0.062,0-0.174-0.012-0.329-0.037
				c-0.148-0.021-0.283-0.035-0.389-0.035c-0.292,0-0.479,0.088-0.566,0.259c-0.079,0.172-0.122,0.418-0.122,0.74v0.386h0.396
				c0.62,0,0.926,0.185,0.926,0.56c0,0.262-0.079,0.431-0.245,0.503c-0.163,0.071-0.39,0.107-0.68,0.107h-0.396v4.294
				c0,0.319-0.075,0.563-0.231,0.73c-0.151,0.17-0.346,0.254-0.589,0.254c-0.229,0-0.419-0.084-0.574-0.254
				c-0.153-0.167-0.228-0.411-0.228-0.73v-4.294h-0.446c-0.243,0-0.427-0.053-0.558-0.164c-0.131-0.107-0.197-0.25-0.197-0.423
				C258.869,458.962,259.14,458.769,259.683,458.769"/>
			<path style="fill:#808080;" d="M264.989,462.878v1.355c0,0.327-0.083,0.574-0.234,0.737c-0.154,0.166-0.349,0.247-0.586,0.247
				c-0.239,0-0.43-0.082-0.579-0.25c-0.148-0.165-0.225-0.41-0.225-0.734v-4.514c0-0.729,0.262-1.093,0.788-1.093
				c0.271,0,0.464,0.084,0.583,0.255c0.119,0.171,0.184,0.421,0.198,0.755c0.192-0.334,0.39-0.584,0.593-0.755
				c0.208-0.171,0.477-0.255,0.819-0.255c0.343,0,0.67,0.084,0.991,0.255c0.322,0.171,0.482,0.398,0.482,0.678
				c0,0.197-0.069,0.362-0.204,0.488c-0.137,0.131-0.284,0.195-0.441,0.195c-0.062,0-0.207-0.039-0.433-0.112
				c-0.228-0.071-0.43-0.108-0.602-0.108c-0.237,0-0.433,0.064-0.582,0.186c-0.151,0.128-0.269,0.311-0.353,0.554
				c-0.081,0.247-0.137,0.541-0.17,0.878C265.003,461.979,264.989,462.392,264.989,462.878"/>
			<path style="fill:#808080;" d="M272.44,462.32h-3.171c0.005,0.367,0.077,0.694,0.222,0.974c0.147,0.279,0.337,0.491,0.578,0.635
				c0.24,0.142,0.502,0.212,0.793,0.212c0.194,0,0.371-0.021,0.531-0.07c0.159-0.043,0.316-0.116,0.466-0.213
				c0.151-0.095,0.288-0.199,0.415-0.313c0.126-0.109,0.292-0.26,0.494-0.449c0.084-0.071,0.203-0.109,0.355-0.109
				c0.168,0,0.301,0.046,0.406,0.139c0.104,0.092,0.152,0.219,0.152,0.386c0,0.147-0.055,0.317-0.167,0.512
				c-0.117,0.198-0.289,0.385-0.522,0.566c-0.234,0.178-0.524,0.329-0.873,0.446c-0.35,0.119-0.754,0.179-1.207,0.179
				c-1.044,0-1.852-0.296-2.429-0.889c-0.578-0.595-0.87-1.401-0.87-2.418c0-0.479,0.073-0.924,0.217-1.334
				c0.14-0.411,0.349-0.76,0.624-1.055c0.272-0.294,0.606-0.518,1.008-0.674c0.399-0.156,0.842-0.234,1.33-0.234
				c0.632,0,1.175,0.134,1.629,0.404c0.452,0.264,0.796,0.61,1.018,1.034c0.226,0.426,0.339,0.855,0.339,1.296
				c0,0.405-0.118,0.669-0.351,0.791C273.191,462.26,272.863,462.32,272.44,462.32 M269.268,461.399h2.938
				c-0.039-0.553-0.186-0.969-0.446-1.242c-0.261-0.276-0.599-0.413-1.025-0.413c-0.403,0-0.735,0.137-0.995,0.418
				C269.481,460.442,269.323,460.853,269.268,461.399"/>
			<path style="fill:#808080;" d="M279.182,462.32h-3.171c0.004,0.367,0.078,0.694,0.221,0.974c0.145,0.279,0.337,0.491,0.576,0.635
				c0.239,0.142,0.504,0.212,0.795,0.212c0.192,0,0.37-0.021,0.528-0.07c0.162-0.043,0.316-0.116,0.469-0.213
				c0.151-0.095,0.287-0.199,0.415-0.313c0.125-0.109,0.29-0.26,0.493-0.449c0.084-0.071,0.204-0.109,0.355-0.109
				c0.168,0,0.302,0.046,0.407,0.139c0.103,0.092,0.15,0.219,0.15,0.386c0,0.147-0.054,0.317-0.171,0.512
				c-0.11,0.198-0.284,0.385-0.519,0.566c-0.231,0.178-0.525,0.329-0.872,0.446c-0.349,0.119-0.755,0.179-1.209,0.179
				c-1.042,0-1.849-0.296-2.429-0.889c-0.577-0.595-0.868-1.401-0.868-2.418c0-0.479,0.073-0.924,0.217-1.334
				c0.142-0.411,0.349-0.76,0.623-1.055c0.272-0.294,0.608-0.518,1.009-0.674c0.398-0.156,0.844-0.234,1.331-0.234
				c0.63,0,1.174,0.134,1.633,0.404c0.45,0.264,0.791,0.61,1.013,1.034c0.225,0.426,0.341,0.855,0.341,1.296
				c0,0.405-0.12,0.669-0.351,0.791C279.932,462.26,279.604,462.32,279.182,462.32 M276.011,461.399h2.938
				c-0.04-0.553-0.19-0.969-0.447-1.242c-0.263-0.276-0.601-0.413-1.027-0.413c-0.403,0-0.735,0.137-0.996,0.418
				C276.222,460.442,276.063,460.853,276.011,461.399"/>
			<path style="fill:#808080;" d="M282.732,459.538v0.194c0.304-0.375,0.621-0.651,0.953-0.828c0.324-0.178,0.699-0.267,1.114-0.267
				c0.497,0,0.96,0.13,1.379,0.386c0.419,0.259,0.749,0.635,0.993,1.129c0.244,0.497,0.366,1.081,0.366,1.758
				c0,0.497-0.07,0.957-0.21,1.376c-0.14,0.418-0.336,0.767-0.58,1.05c-0.246,0.281-0.535,0.501-0.868,0.654
				c-0.339,0.151-0.695,0.227-1.08,0.227c-0.461,0-0.853-0.093-1.166-0.28c-0.314-0.182-0.614-0.458-0.901-0.816v2.433
				c0,0.71-0.26,1.069-0.778,1.069c-0.306,0-0.505-0.092-0.607-0.275c-0.095-0.187-0.146-0.452-0.146-0.807v-6.996
				c0-0.309,0.067-0.537,0.2-0.692c0.134-0.15,0.32-0.228,0.553-0.228c0.231,0,0.416,0.078,0.56,0.234
				C282.661,459.018,282.732,459.241,282.732,459.538 M285.909,461.892c0-0.428-0.067-0.796-0.197-1.102
				c-0.131-0.308-0.312-0.542-0.541-0.705c-0.229-0.164-0.489-0.248-0.77-0.248c-0.446,0-0.824,0.178-1.13,0.527
				c-0.308,0.354-0.462,0.872-0.462,1.558c0,0.641,0.153,1.146,0.46,1.504c0.305,0.358,0.679,0.536,1.133,0.536
				c0.268,0,0.519-0.079,0.748-0.233c0.232-0.158,0.416-0.392,0.552-0.704C285.839,462.714,285.909,462.335,285.909,461.892"/>
			<path style="fill:#808080;" d="M289.169,457.871c-0.226,0-0.418-0.071-0.577-0.209c-0.162-0.139-0.242-0.333-0.242-0.585
				c0-0.23,0.082-0.419,0.248-0.569c0.164-0.146,0.354-0.222,0.571-0.222c0.212,0,0.397,0.067,0.559,0.2
				c0.162,0.137,0.244,0.334,0.244,0.591c0,0.25-0.079,0.444-0.236,0.585C289.577,457.8,289.389,457.871,289.169,457.871
				 M289.972,459.546v4.689c0,0.322-0.077,0.568-0.231,0.732c-0.156,0.168-0.35,0.25-0.588,0.25c-0.238,0-0.428-0.084-0.58-0.254
				c-0.146-0.173-0.222-0.416-0.222-0.729v-4.642c0-0.319,0.076-0.559,0.222-0.721c0.152-0.165,0.342-0.245,0.58-0.245
				c0.238,0,0.432,0.079,0.588,0.245C289.894,459.033,289.972,459.259,289.972,459.546"/>
			<path style="fill:#808080;" d="M295.196,464.477l-1.428-2.354l-0.88,0.83v1.291c0,0.312-0.083,0.551-0.248,0.718
				c-0.16,0.17-0.354,0.254-0.566,0.254c-0.249,0-0.447-0.082-0.588-0.25c-0.142-0.165-0.215-0.41-0.215-0.734v-6.915
				c0-0.358,0.071-0.632,0.207-0.821c0.139-0.191,0.341-0.283,0.596-0.283c0.25,0,0.445,0.086,0.593,0.257
				c0.146,0.169,0.221,0.421,0.221,0.751v3.933l1.822-1.914c0.227-0.235,0.396-0.4,0.517-0.486c0.118-0.087,0.262-0.13,0.431-0.13
				c0.204,0,0.371,0.065,0.51,0.193c0.132,0.129,0.2,0.291,0.2,0.483c0,0.237-0.221,0.556-0.659,0.951l-0.861,0.789l1.662,2.614
				c0.121,0.196,0.212,0.34,0.265,0.441c0.052,0.1,0.081,0.2,0.081,0.289c0,0.258-0.071,0.459-0.213,0.61
				c-0.14,0.148-0.327,0.221-0.554,0.221c-0.198,0-0.352-0.051-0.458-0.16C295.526,464.949,295.377,464.755,295.196,464.477"/>
			<path style="fill:#808080;" d="M298.718,465.217c-0.245,0-0.455-0.079-0.634-0.238c-0.178-0.156-0.268-0.378-0.268-0.665
				c0-0.241,0.086-0.449,0.256-0.622c0.172-0.174,0.38-0.262,0.63-0.262c0.248,0,0.46,0.087,0.639,0.258
				c0.174,0.172,0.264,0.383,0.264,0.626c0,0.283-0.089,0.505-0.264,0.662C299.163,465.138,298.955,465.217,298.718,465.217"/>
			<path style="fill:#808080;" d="M306.78,463.211c0,0.2-0.06,0.417-0.182,0.646c-0.12,0.231-0.305,0.449-0.553,0.656
				c-0.247,0.207-0.557,0.377-0.935,0.502c-0.375,0.126-0.8,0.192-1.269,0.192c-1.004,0-1.786-0.294-2.349-0.876
				c-0.56-0.585-0.841-1.368-0.841-2.35c0-0.667,0.128-1.254,0.387-1.765c0.254-0.509,0.628-0.904,1.113-1.184
				c0.487-0.28,1.072-0.419,1.746-0.419c0.421,0,0.805,0.061,1.158,0.184c0.35,0.122,0.645,0.282,0.891,0.474
				c0.242,0.197,0.428,0.402,0.556,0.62c0.129,0.22,0.192,0.426,0.192,0.617c0,0.192-0.071,0.357-0.214,0.492
				c-0.147,0.134-0.322,0.203-0.524,0.203c-0.137,0-0.249-0.035-0.338-0.104c-0.09-0.07-0.19-0.181-0.299-0.339
				c-0.198-0.299-0.404-0.526-0.622-0.674c-0.214-0.152-0.488-0.226-0.821-0.226c-0.476,0-0.865,0.186-1.159,0.561
				c-0.292,0.372-0.44,0.887-0.44,1.534c0,0.305,0.039,0.587,0.114,0.842c0.073,0.254,0.182,0.472,0.325,0.652
				c0.144,0.179,0.315,0.315,0.516,0.409c0.203,0.096,0.425,0.141,0.665,0.141c0.326,0,0.604-0.075,0.836-0.225
				c0.235-0.151,0.439-0.38,0.616-0.689c0.099-0.182,0.204-0.323,0.318-0.427c0.114-0.102,0.256-0.156,0.422-0.156
				c0.198,0,0.363,0.077,0.491,0.227C306.714,462.88,306.78,463.042,306.78,463.211"/>
			<path style="fill:#808080;" d="M313.774,461.923c0,0.481-0.076,0.928-0.222,1.337c-0.154,0.408-0.37,0.758-0.656,1.049
				c-0.284,0.293-0.626,0.518-1.02,0.675c-0.4,0.154-0.844,0.234-1.337,0.234c-0.491,0-0.933-0.08-1.326-0.239
				c-0.389-0.156-0.732-0.384-1.016-0.676c-0.288-0.298-0.505-0.646-0.657-1.048c-0.143-0.402-0.219-0.846-0.219-1.332
				c0-0.491,0.077-0.941,0.224-1.349c0.151-0.409,0.368-0.757,0.649-1.046c0.282-0.289,0.621-0.511,1.019-0.669
				c0.402-0.156,0.844-0.234,1.326-0.234c0.49,0,0.936,0.078,1.337,0.239c0.398,0.157,0.739,0.384,1.027,0.674
				c0.286,0.297,0.502,0.643,0.65,1.045C313.699,460.991,313.774,461.434,313.774,461.923 M312.147,461.923
				c0-0.662-0.146-1.176-0.436-1.543c-0.289-0.372-0.681-0.555-1.171-0.555c-0.317,0-0.597,0.082-0.839,0.246
				c-0.242,0.164-0.425,0.406-0.556,0.728c-0.131,0.321-0.197,0.696-0.197,1.124c0,0.424,0.064,0.792,0.194,1.108
				c0.13,0.319,0.314,0.561,0.553,0.729c0.241,0.167,0.522,0.253,0.845,0.253c0.49,0,0.882-0.185,1.171-0.557
				C312,463.086,312.147,462.574,312.147,461.923"/>
			<path style="fill:#808080;" d="M319.956,462.042v2.154c0,0.342-0.075,0.594-0.231,0.767c-0.156,0.17-0.357,0.255-0.611,0.255
				c-0.245,0-0.446-0.085-0.595-0.255c-0.154-0.173-0.232-0.425-0.232-0.767v-2.582c0-0.408-0.013-0.726-0.04-0.953
				c-0.029-0.221-0.105-0.41-0.226-0.552c-0.123-0.147-0.318-0.22-0.582-0.22c-0.532,0-0.879,0.181-1.048,0.55
				c-0.167,0.36-0.254,0.883-0.254,1.567v2.189c0,0.336-0.076,0.591-0.226,0.765c-0.156,0.171-0.355,0.258-0.603,0.258
				c-0.247,0-0.448-0.087-0.604-0.258c-0.157-0.173-0.235-0.428-0.235-0.765v-4.637c0-0.306,0.07-0.538,0.209-0.695
				c0.143-0.16,0.329-0.239,0.556-0.239c0.223,0,0.407,0.077,0.557,0.222c0.148,0.149,0.222,0.354,0.222,0.615v0.153
				c0.283-0.334,0.584-0.582,0.903-0.738c0.323-0.162,0.676-0.241,1.07-0.241c0.407,0,0.757,0.082,1.049,0.244
				c0.293,0.163,0.533,0.409,0.725,0.735c0.275-0.33,0.568-0.577,0.881-0.738c0.313-0.161,0.658-0.241,1.039-0.241
				c0.441,0,0.826,0.089,1.146,0.262c0.319,0.174,0.558,0.425,0.717,0.747c0.138,0.295,0.206,0.756,0.206,1.385v3.164
				c0,0.342-0.076,0.594-0.229,0.767c-0.154,0.17-0.359,0.255-0.612,0.255c-0.247,0-0.446-0.087-0.603-0.258
				c-0.156-0.173-0.235-0.428-0.235-0.765v-2.726c0-0.349-0.015-0.627-0.043-0.836c-0.029-0.211-0.11-0.388-0.239-0.529
				c-0.132-0.142-0.331-0.215-0.596-0.215c-0.214,0-0.416,0.066-0.609,0.192c-0.192,0.124-0.342,0.298-0.45,0.508
				C320.018,460.864,319.956,461.348,319.956,462.042"/>
		</g>
		<g>
			<path style="fill:#808080;" d="M244.516,461.531c-0.001-0.003-0.001-0.006-0.001-0.011
				C244.515,461.525,244.515,461.527,244.516,461.531z"/>
			<path style="fill:#808080;" d="M244.598,462.049c0.001,0,0.001,0,0.001,0c-0.031-0.148-0.055-0.294-0.074-0.439
				C244.544,461.756,244.568,461.903,244.598,462.049z"/>
			<path style="fill:#808080;" d="M245.134,463.553c-0.004-0.006-0.007-0.013-0.011-0.021
				C245.127,463.539,245.13,463.547,245.134,463.553z"/>
			<path style="fill:#808080;" d="M245.083,463.453c-0.014-0.027-0.027-0.056-0.041-0.084
				C245.055,463.398,245.069,463.425,245.083,463.453z"/>
			<path style="fill:#808080;" d="M244.748,462.628c0.079,0.25,0.175,0.493,0.286,0.724c-0.113-0.236-0.206-0.479-0.283-0.724
				C244.75,462.628,244.749,462.628,244.748,462.628z"/>
			<path style="fill:#808080;" d="M250.789,455.32c0.313,0,0.544,0.025,0.809,0.069l0.075-0.477c0,0-0.732-0.225-1.694-0.147
				l-0.076-0.259c0.299-0.063,0.524-0.329,0.524-0.646c0-0.364-0.296-0.659-0.661-0.659c-0.364,0-0.66,0.295-0.66,0.659
				c0,0.317,0.224,0.583,0.522,0.646l0.084,0.289c-1.021,0.14-1.834,0.539-1.834,0.539l0.144,0.441
				c0.618-0.206,1.154-0.331,1.64-0.383C250.139,455.342,250.497,455.32,250.789,455.32z"/>
			<path style="fill:#808080;" d="M245.122,457.732l0.004-0.005c0.024-0.031,0.047-0.06,0.071-0.089l-0.196-0.141l-0.305-0.223
				c-0.017,0.024-0.497,0.465-0.876,1.28c-0.016-0.026-0.035-0.051-0.056-0.074c-0.114-0.124-0.272-0.187-0.474-0.184
				c-0.003,0-0.006,0-0.009,0c-0.125,0-0.21-0.041-0.267-0.092c0.056-0.071,0.089-0.16,0.089-0.258c0-0.23-0.187-0.418-0.418-0.418
				c-0.23,0-0.418,0.188-0.418,0.418c0,0.231,0.187,0.418,0.418,0.418c0.036,0,0.071-0.006,0.104-0.013
				c0.103,0.114,0.266,0.214,0.505,0.209c0.123-0.001,0.213,0.031,0.273,0.097c0.069,0.076,0.093,0.185,0.1,0.267
				c-0.001,0.001-0.001,0.003-0.002,0.003c-0.272,0.743-0.194,1.669-0.194,1.669l0.661,0.026c0.013-0.337,0.062-0.926,0.232-1.394
				C244.693,458.322,245.105,457.756,245.122,457.732z"/>
			<path style="fill:#808080;" d="M256.539,455.873c-0.23,0-0.418,0.187-0.418,0.418c0,0.036,0.005,0.07,0.015,0.103
				c-0.115,0.104-0.214,0.267-0.211,0.507c0.002,0.123-0.03,0.212-0.096,0.273c-0.053,0.047-0.12,0.072-0.185,0.088
				c-0.492-0.689-1.097-1.11-1.097-1.11l-0.474,0.508c0.358,0.326,0.725,0.734,1.08,1.244c0.246,0.352,0.499,0.806,0.71,1.259
				l0.64-0.304c0,0-0.292-0.722-0.704-1.37c0.072-0.025,0.144-0.064,0.207-0.12c0.125-0.113,0.187-0.273,0.183-0.474
				c-0.001-0.13,0.042-0.218,0.093-0.276c0.071,0.054,0.16,0.089,0.257,0.089c0.232,0,0.419-0.187,0.419-0.418
				C256.958,456.059,256.771,455.873,256.539,455.873z"/>
			<path style="fill:#808080;" d="M254.878,461.624c-0.881,0.429-2.33,0.996-4.238,1.262c-0.749,0.104-1.475,0.142-2.143,0.142
				c-0.869,0-1.637-0.065-2.227-0.139c-0.673-0.085-1.199-0.188-1.52-0.261c0.077,0.245,0.171,0.488,0.283,0.724
				c0.002,0.006,0.005,0.013,0.008,0.017c0.013,0.028,0.027,0.056,0.041,0.084c0.013,0.027,0.027,0.054,0.041,0.079
				c0.004,0.007,0.007,0.015,0.011,0.021c0.189,0.357,0.417,0.684,0.675,0.968c0.9,0.984,1.817,1.14,1.826,1.141l0.014,0.002
				l0.013,0.005c0.008,0.003,0.821,0.266,2.057,0.266c1.216,0,2.409-0.245,3.546-0.729c0.842-0.431,1.639-1.085,2.034-1.669
				c0.305-0.452,0.525-0.933,0.656-1.434c0.07-0.266,0.124-0.692,0.092-1.141C255.8,461.128,255.408,461.366,254.878,461.624z"/>
			<path style="fill:#808080;" d="M245.405,457.94c-0.026,0.037-0.408,0.578-0.709,1.408c-0.226,0.622-0.216,1.527-0.216,1.538
				v0.002c0,0.212,0.012,0.423,0.035,0.632c0,0.005,0,0.008,0.001,0.011c0.002,0.027,0.007,0.052,0.009,0.079
				c0.019,0.145,0.043,0.291,0.074,0.439c0.438,0.111,3.049,0.72,5.968,0.314c1.829-0.254,3.218-0.795,4.062-1.204
				c0.701-0.34,1.151-0.648,1.325-0.774c-0.173-0.643-0.651-1.65-1.09-2.279c-1.253-1.791-2.604-2.25-3.298-2.364
				c-0.265-0.043-0.477-0.068-0.777-0.068c-0.28,0-0.626,0.023-1.089,0.071c-0.464,0.048-0.982,0.17-1.583,0.372
				c-0.842,0.282-1.605,0.724-2.204,1.28l-0.021,0.019C245.804,457.497,245.618,457.669,245.405,457.94z M253.073,457.524
				c0.601,0,1.09,0.488,1.09,1.089c0,0.601-0.489,1.09-1.09,1.09c-0.601,0-1.089-0.489-1.089-1.09
				C251.984,458.012,252.472,457.524,253.073,457.524z M247.922,457.48c0.973,0,1.76,0.789,1.76,1.761
				c0,0.972-0.788,1.759-1.76,1.759c-0.972,0-1.76-0.787-1.76-1.759C246.162,458.269,246.951,457.48,247.922,457.48z"/>
		</g>
	</g>
</g>
</svg>
